<svg xmlns="http://www.w3.org/2000/svg" viewBox="0 0 1400 900" role="img" aria-labelledby="title desc">
  <title id="title">Atelier lumineux Taskly</title>
  <desc id="desc">Image abstraite d'un intérieur de maison avec outils et meubles.</desc>
  <defs>
    <linearGradient id="g" x1="0" x2="1" y1="0" y2="1">
      <stop stop-color="#d9f5ef"/>
      <stop offset=".48" stop-color="#f8fafc"/>
      <stop offset="1" stop-color="#f6d8a7"/>
    </linearGradient>
    <filter id="s" x="-20%" y="-20%" width="140%" height="140%">
      <feDropShadow dx="0" dy="20" stdDeviation="18" flood-color="#0f172a" flood-opacity=".22"/>
    </filter>
  </defs>
  <rect width="1400" height="900" fill="url(#g)"/>
  <path d="M0 670h1400v230H0z" fill="#b77945"/>
  <path d="M118 166h392v448H118z" fill="#fff" opacity=".72" filter="url(#s)"/>
  <path d="M170 226h288v56H170zM170 326h288v56H170zM170 426h220v56H170z" fill="#d9f5ef"/>
  <path d="M878 180h310v489H878z" fill="#f8fafc" filter="url(#s)"/>
  <path d="M918 232h230v114H918z" fill="#e2e8f0"/>
  <path d="M918 392h230v229H918z" fill="#f8dbb3"/>
  <circle cx="672" cy="388" r="151" fill="#0f766e" opacity=".16"/>
  <path d="M608 293c65-35 152 13 158 88 6 81-69 151-149 128-84-25-96-170-9-216z" fill="#0f766e" opacity=".34"/>
  <path d="M645 236c45 0 82 37 82 82s-37 82-82 82-82-37-82-82 37-82 82-82z" fill="#f5bd83"/>
  <path d="M570 312c3-59 48-99 105-88 42 8 70 40 72 86-46-2-83-22-109-59-12 39-37 61-68 61z" fill="#173b36"/>
  <path d="M503 650c36-118 97-183 178-192 92-9 171 66 203 192z" fill="#083f39"/>
  <path d="M719 458l-59 108-51-103c35-15 72-17 110-5z" fill="#ffffff"/>
  <path d="M884 672l104-122 58 48-87 74z" fill="#0f766e"/>
  <path d="M301 694l190-78 27 60-192 72z" fill="#f59e0b"/>
</svg>
