<svg xmlns="http://www.w3.org/2000/svg" viewBox="0 0 900 700" role="img" aria-labelledby="title desc">
  <title id="title">Artisan Taskly en intervention</title>
  <desc id="desc">Illustration moderne d'un artisan aidant un client à domicile.</desc>
  <defs>
    <linearGradient id="wall" x1="0" x2="1" y1="0" y2="1">
      <stop stop-color="#f8fafc"/>
      <stop offset="1" stop-color="#d9f5ef"/>
    </linearGradient>
    <linearGradient id="floor" x1="0" x2="1">
      <stop stop-color="#d7a56a"/>
      <stop offset="1" stop-color="#f1d1a2"/>
    </linearGradient>
    <filter id="shadow" x="-20%" y="-20%" width="140%" height="140%">
      <feDropShadow dx="0" dy="18" stdDeviation="22" flood-color="#0f172a" flood-opacity=".18"/>
    </filter>
  </defs>
  <rect width="900" height="700" fill="url(#wall)"/>
  <path d="M0 518h900v182H0z" fill="url(#floor)"/>
  <path d="M642 84h164v292H642z" fill="#ffffff" opacity=".76"/>
  <path d="M674 120h100v215H674z" fill="#c7efe4"/>
  <path d="M99 153h244v250H99z" fill="#ffffff" filter="url(#shadow)"/>
  <path d="M121 178h200v42H121z" fill="#0f766e" opacity=".18"/>
  <path d="M121 244h200v122H121z" fill="#e7f7f2"/>
  <path d="M456 268c44-52 133-55 181 4 36 45 41 122 14 171-27 51-86 76-145 62-72-17-109-78-101-141 4-34 22-70 51-96z" fill="#0f766e" opacity=".17"/>
  <path d="M581 170c33 0 60 27 60 60s-27 60-60 60-60-27-60-60 27-60 60-60z" fill="#f4b85b"/>
  <path d="M546 224c11-18 56-18 68 0l10 16c7 12-1 28-15 28h-79c-14 0-22-16-15-28z" fill="#083f39"/>
  <path d="M522 563c-32 14-74 13-96-17-13-18-10-43 7-58l92-80 56 54z" fill="#0f766e"/>
  <path d="M566 444l-62 62-84-91c-15-16-14-42 2-57 16-15 41-14 56 2z" fill="#173b36"/>
  <path d="M550 319c28 4 52 25 59 53l34 141c4 17-7 34-24 38-17 4-34-7-38-24l-23-96-42 44-64-68 47-65c12-17 31-25 51-23z" fill="#0f766e"/>
  <path d="M489 323c29-31 77-34 109-6l-58 77z" fill="#23a092"/>
  <path d="M492 201c28 0 51 23 51 51s-23 51-51 51-51-23-51-51 23-51 51-51z" fill="#f7c79d"/>
  <path d="M443 238c3-41 35-67 74-58 28 7 45 28 45 57-27-4-48-17-62-39-12 31-33 43-57 40z" fill="#173b36"/>
  <path d="M311 452l-65-83 40-31 65 84z" fill="#0f766e"/>
  <path d="M276 352l67-52 23 30-67 51z" fill="#94a3b8"/>
  <path d="M329 412l90 99c14 16 13 40-3 54-16 15-41 14-55-2l-82-107z" fill="#f7c79d"/>
  <path d="M188 483h228v38H188z" fill="#ffffff" filter="url(#shadow)"/>
  <path d="M210 521h33v126h-33zM359 521h33v126h-33z" fill="#0f766e"/>
  <path d="M121 613h620v34H121z" fill="#083f39"/>
  <circle cx="755" cy="507" r="52" fill="#f59e0b" opacity=".85"/>
  <path d="M713 507h83" stroke="#ffffff" stroke-width="15" stroke-linecap="round"/>
  <path d="M755 465v83" stroke="#ffffff" stroke-width="15" stroke-linecap="round"/>
</svg>
