<svg xmlns="http://www.w3.org/2000/svg" width="260" height="74" viewBox="0 0 260 74" role="img" aria-labelledby="title">
  <title id="title">Taskly</title>
  <g fill="none" stroke="#087f63" stroke-width="5" stroke-linecap="round" stroke-linejoin="round">
    <path d="M31 39c-7 0-13-5-13-12s6-12 13-12c9 0 14 7 19 18" />
    <path d="M31 39c-7 0-13 5-13 12s6 12 13 12c10 0 16-8 21-23" />
    <path d="M52 33c5-14 12-20 21-18 7 1 12 7 11 14-1 8-8 12-18 11" />
    <path d="M53 41c6 13 14 20 24 17 7-2 10-8 8-15-2-8-10-10-19-8" />
    <path d="M50 34c-6-4-10-11-9-20 9 0 17 4 22 12" />
  </g>
  <text x="101" y="51" fill="#087f63" font-family="Arial, Helvetica, sans-serif" font-size="43" font-weight="800">taskly</text>
</svg>
